<?xml version="1.0" encoding="UTF-8" standalone="no"?>
<!-- Created with Inkscape (http://www.inkscape.org/) -->

<svg
   width="800"
   height="800"
   viewBox="0 0 800 800"
   version="1.1"
   id="SVGRoot"
   sodipodi:docname="logo.svg"
   inkscape:version="1.2.1 (9c6d41e410, 2022-07-14, custom)"
   xmlns:inkscape="http://www.inkscape.org/namespaces/inkscape"
   xmlns:sodipodi="http://sodipodi.sourceforge.net/DTD/sodipodi-0.dtd"
   xmlns="http://www.w3.org/2000/svg"
   xmlns:svg="http://www.w3.org/2000/svg">
  <sodipodi:namedview
     id="namedview1004"
     pagecolor="#ffffff"
     bordercolor="#999999"
     borderopacity="1"
     inkscape:showpageshadow="0"
     inkscape:pageopacity="0"
     inkscape:pagecheckerboard="0"
     inkscape:deskcolor="#d1d1d1"
     inkscape:document-units="px"
     showgrid="true"
     inkscape:zoom="1.5518659"
     inkscape:cx="384.376"
     inkscape:cy="198.47076"
     inkscape:window-width="1920"
     inkscape:window-height="1061"
     inkscape:window-x="0"
     inkscape:window-y="19"
     inkscape:window-maximized="1"
     inkscape:current-layer="layer1"
     showguides="true">
    <inkscape:grid
       type="xygrid"
       id="grid1010"
       originx="0"
       originy="0" />
  </sodipodi:namedview>
  <defs
     id="defs999">
    <inkscape:path-effect
       effect="fillet_chamfer"
       id="path-effect451"
       is_visible="true"
       lpeversion="1"
       nodesatellites_param="F,0,0,1,0,3,0,1 @ F,0,0,1,0,3,0,1 @ F,0,0,1,0,3,0,1 @ F,0,0,1,0,3,0,1 @ F,0,0,1,0,3,0,1 @ F,0,0,1,0,3,0,1 @ F,0,0,1,0,3,0,1 @ F,0,0,1,0,3,0,1 @ F,0,0,1,0,3,0,1 @ F,0,0,1,0,3,0,1 @ F,0,0,1,0,3,0,1 @ F,0,0,1,0,3,0,1 @ F,0,0,1,0,3,0,1 @ F,0,0,1,0,3,0,1 @ F,0,0,1,0,3,0,1 @ F,0,0,1,0,3,0,1 @ F,0,0,1,0,3,0,1 @ F,0,0,1,0,3,0,1 @ F,0,0,1,0,3,0,1 @ F,0,0,1,0,3,0,1 @ F,0,0,1,0,3,0,1 @ F,0,0,1,0,3,0,1"
       unit="px"
       method="auto"
       mode="F"
       radius="3"
       chamfer_steps="1"
       flexible="false"
       use_knot_distance="true"
       apply_no_radius="true"
       apply_with_radius="true"
       only_selected="false"
       hide_knots="false" />
    <inkscape:path-effect
       effect="fillet_chamfer"
       id="path-effect407"
       nodesatellites_param="F,0,0,1,0,0,0,1 @ F,0,0,1,0,0,0,1 @ F,0,0,1,0,0,0,1 @ F,0,0,1,0,0,0,1 @ F,0,0,1,0,0,0,1 @ F,0,0,1,0,0,0,1 @ F,0,0,1,0,0,0,1 | F,0,0,1,0,0,0,1 @ F,0,0,1,0,0,0,1 @ F,0,0,1,0,0,0,1 @ F,0,0,1,0,0,0,1 @ F,0,0,1,0,0,0,1 @ F,0,0,1,0,0,0,1 @ F,0,0,1,0,0,0,1 | F,0,0,1,0,0,0,1 @ F,0,0,1,0,0,0,1 @ F,0,0,1,0,0,0,1 @ F,0,0,1,0,0,0,1 | F,0,0,1,0,0,0,1 @ F,0,0,1,0,0,0,1 @ F,0,0,1,0,0,0,1 @ F,0,0,1,0,0,0,1 | F,0,0,1,0,0,0,1 @ F,0,0,1,0,0,0,1 @ F,0,0,1,0,0,0,1 @ F,0,0,1,0,0,0,1"
       is_visible="true"
       lpeversion="1"
       unit="px"
       method="auto"
       mode="F"
       radius="0"
       chamfer_steps="1"
       flexible="false"
       use_knot_distance="true"
       apply_no_radius="true"
       apply_with_radius="true"
       only_selected="false"
       hide_knots="false" />
    <inkscape:path-effect
       effect="fillet_chamfer"
       id="path-effect396"
       is_visible="true"
       lpeversion="1"
       nodesatellites_param="F,0,0,1,0,3,0,1 @ F,0,0,1,0,3,0,1 @ F,0,0,1,0,3,0,1 @ F,0,0,1,0,3,0,1 @ F,0,0,1,0,3,0,1 @ F,0,0,1,0,3,0,1 @ F,0,0,1,0,3,0,1 @ F,0,0,1,0,3,0,1 @ F,0,0,1,0,3,0,1 @ F,0,0,1,0,3,0,1 @ F,0,0,1,0,3,0,1 @ F,0,0,1,0,3,0,1 @ F,0,0,1,0,3,0,1 @ F,0,0,1,0,3,0,1 @ F,0,0,1,0,3,0,1 @ F,0,0,1,0,3,0,1"
       unit="px"
       method="auto"
       mode="F"
       radius="3"
       chamfer_steps="1"
       flexible="false"
       use_knot_distance="true"
       apply_no_radius="true"
       apply_with_radius="true"
       only_selected="false"
       hide_knots="false" />
    <rect
       x="115"
       y="385"
       width="350"
       height="145"
       id="rect1498" />
  </defs>
  <g
     inkscape:label="Layer 1"
     inkscape:groupmode="layer"
     id="layer1"
     style="display:inline">
    <path
       style="fill:#000000"
       d="m 549.835,252.99478 c -0.92064,10.52635 -6.97828,45.28307 -46.83618,46.94361 C 501.34371,300.00735 498.65685,300 497,300 h -19 a 3,3 135 0 0 -3,3 v 19 a 1.2426407,1.2426407 157.5 0 1 -2.12132,0.87868 l -45.75736,-45.75736 a 3,3 90 0 1 0,-4.24264 l 45.75736,-45.75736 A 1.2426407,1.2426407 22.5 0 1 475,228 v 19 a 3,3 45 0 0 3,3 h 19 a 3,3 135 0 0 3,-3 V 103 a 3,3 135 0 1 3,-3 h 44 a 6.4051248,6.4051248 25.097214 0 1 4.92055,2.30466 l 96.1589,115.39068 A 1.0861498,1.0861498 160.09721 0 0 650,217 l 0,-64 c 0,-1.65685 0.0207,-4.3446 0.165,-5.99478 0.92064,-10.52635 6.97828,-45.28307 46.83618,-46.94361 C 698.65629,99.992654 701.34315,100 703,100 h 19 a 3,3 135 0 0 3,-3 V 78 a 1.2426407,1.2426407 157.5 0 1 2.12132,-0.87868 l 45.75736,45.75736 a 3,3 90 0 1 0,4.24264 l -45.75736,45.75736 A 1.2426407,1.2426407 22.5 0 1 725,172 v -19 a 3,3 45 0 0 -3,-3 h -19 a 3,3 135 0 0 -3,3 v 144 a 3,3 135 0 1 -3,3 h -44 a 6.4051248,6.4051248 25.097214 0 1 -4.92055,-2.30466 L 551.92055,182.30466 A 1.0861498,1.0861498 160.09721 0 0 550,183 v 64 c 0,1.65685 -0.0207,4.3446 -0.165,5.99478 z"
       id="path1176-5"
       sodipodi:nodetypes="csccccccccccccccccccccc"
       inkscape:path-effect="#path-effect451"
       inkscape:original-d="m 550,250 c 0,0 0,50 -50,50 h -25 v 25 l -50,-50 50,-50 v 25 h 25 V 100 h 50 l 100,120 v -70 c 0,0 0,-50 50,-50 h 25 V 75 l 50,50 -50,50 V 150 H 700 V 300 H 650 L 550,180 Z" />
    <path
       style="fill:#000000;stroke-width:0.935414"
       d="m 100,103 v 169 a 3,3 135 0 1 -3,3 H 78 a 1.2426407,1.2426407 112.5 0 0 -0.87868,2.12132 l 45.75736,45.75736 a 3,3 0 0 0 4.24264,0 l 45.75736,-45.75736 A 1.2426407,1.2426407 67.5 0 0 172,275 h -19 a 3,3 45 0 1 -3,-3 v -89 a 1.0861498,1.0861498 160.09721 0 1 1.92055,-0.69534 l 96.1589,115.39068 A 6.4051248,6.4051248 25.097214 0 0 253,300 h 44 a 3,3 135 0 0 3,-3 l 0,-169 a 3,3 135 0 1 3,-3 h 19 a 1.2426407,1.2426407 112.5 0 0 0.87868,-2.12132 L 277.12132,77.12132 a 3,3 0 0 0 -4.24264,0 l -45.75736,45.75736 A 1.2426407,1.2426407 67.5 0 0 228,125 h 19 a 3,3 45 0 1 3,3 v 89 a 1.0861498,1.0861498 160.09721 0 1 -1.92055,0.69534 L 151.92055,102.30466 A 6.4051248,6.4051248 25.097214 0 0 147,100 h -44 a 3,3 135 0 0 -3,3 z"
       id="path164-35"
       sodipodi:nodetypes="ccccccccccccccccc"
       inkscape:export-filename="path164-35.svg"
       inkscape:export-xdpi="96"
       inkscape:export-ydpi="96"
       class="UnoptimicedTransforms"
       inkscape:path-effect="#path-effect396"
       inkscape:original-d="M 100,100 V 275 H 75 l 50,50 50,-50 h -25 v -95 l 100,120 h 50 V 125 h 25 l -50,-50 -50,50 h 25 v 95 L 150,100 Z" />
  </g>
</svg>
