<?xml version="1.0" encoding="UTF-8" standalone="no"?>
<!-- Created with Inkscape (http://www.inkscape.org/) -->

<svg
   width="246.48529"
   height="247.51471"
   viewBox="0 0 246.48529 247.51471"
   version="1.1"
   id="SVGRoot"
   sodipodi:docname="logo_concept.svg"
   inkscape:version="1.2.1 (9c6d41e410, 2022-07-14, custom)"
   xmlns:inkscape="http://www.inkscape.org/namespaces/inkscape"
   xmlns:sodipodi="http://sodipodi.sourceforge.net/DTD/sodipodi-0.dtd"
   xmlns="http://www.w3.org/2000/svg"
   xmlns:svg="http://www.w3.org/2000/svg">
  <sodipodi:namedview
     id="namedview1004"
     pagecolor="#ffffff"
     bordercolor="#999999"
     borderopacity="1"
     inkscape:showpageshadow="0"
     inkscape:pageopacity="0"
     inkscape:pagecheckerboard="0"
     inkscape:deskcolor="#d1d1d1"
     inkscape:document-units="px"
     showgrid="true"
     inkscape:zoom="1.5518659"
     inkscape:cx="384.376"
     inkscape:cy="198.47076"
     inkscape:window-width="1920"
     inkscape:window-height="1061"
     inkscape:window-x="0"
     inkscape:window-y="19"
     inkscape:window-maximized="1"
     inkscape:current-layer="layer1"
     showguides="true">
    <inkscape:grid
       type="xygrid"
       id="grid1010"
       originx="0"
       originy="0" />
  </sodipodi:namedview>
  <defs
     id="defs999">
    <inkscape:path-effect
       effect="fillet_chamfer"
       id="path-effect396"
       is_visible="true"
       lpeversion="1"
       nodesatellites_param="F,0,0,1,0,3,0,1 @ F,0,0,1,0,3,0,1 @ F,0,0,1,0,3,0,1 @ F,0,0,1,0,3,0,1 @ F,0,0,1,0,3,0,1 @ F,0,0,1,0,3,0,1 @ F,0,0,1,0,3,0,1 @ F,0,0,1,0,3,0,1 @ F,0,0,1,0,3,0,1 @ F,0,0,1,0,3,0,1 @ F,0,0,1,0,3,0,1 @ F,0,0,1,0,3,0,1 @ F,0,0,1,0,3,0,1 @ F,0,0,1,0,3,0,1 @ F,0,0,1,0,3,0,1 @ F,0,0,1,0,3,0,1"
       unit="px"
       method="auto"
       mode="F"
       radius="3"
       chamfer_steps="1"
       flexible="false"
       use_knot_distance="true"
       apply_no_radius="true"
       apply_with_radius="true"
       only_selected="false"
       hide_knots="false" />
  </defs>
  <g
     inkscape:label="Layer 1"
     inkscape:groupmode="layer"
     id="layer1"
     style="display:inline"
     transform="translate(-76.757362,-76.242638)">
    <path
       style="fill:#000000;stroke-width:0.935414"
       d="m 100,103 v 169 a 3,3 135 0 1 -3,3 H 78 a 1.2426407,1.2426407 112.5 0 0 -0.87868,2.12132 l 45.75736,45.75736 a 3,3 0 0 0 4.24264,0 l 45.75736,-45.75736 A 1.2426407,1.2426407 67.5 0 0 172,275 h -19 a 3,3 45 0 1 -3,-3 v -89 a 1.0861498,1.0861498 160.09721 0 1 1.92055,-0.69534 l 96.1589,115.39068 A 6.4051248,6.4051248 25.097214 0 0 253,300 h 44 a 3,3 135 0 0 3,-3 l 0,-169 a 3,3 135 0 1 3,-3 h 19 a 1.2426407,1.2426407 112.5 0 0 0.87868,-2.12132 L 277.12132,77.12132 a 3,3 0 0 0 -4.24264,0 l -45.75736,45.75736 A 1.2426407,1.2426407 67.5 0 0 228,125 h 19 a 3,3 45 0 1 3,3 v 89 a 1.0861498,1.0861498 160.09721 0 1 -1.92055,0.69534 L 151.92055,102.30466 A 6.4051248,6.4051248 25.097214 0 0 147,100 h -44 a 3,3 135 0 0 -3,3 z"
       id="path164-35"
       sodipodi:nodetypes="ccccccccccccccccc"
       inkscape:export-filename="path164-35.svg"
       inkscape:export-xdpi="96"
       inkscape:export-ydpi="96"
       class="UnoptimicedTransforms"
       inkscape:path-effect="#path-effect396"
       inkscape:original-d="M 100,100 V 275 H 75 l 50,50 50,-50 h -25 v -95 l 100,120 h 50 V 125 h 25 l -50,-50 -50,50 h 25 v 95 L 150,100 Z" />
  </g>
</svg>
