<?xml version="1.0" encoding="UTF-8" standalone="no"?>
<!-- Created with Inkscape (http://www.inkscape.org/) -->

<svg
   width="246.48529"
   height="247.51471"
   viewBox="0 0 246.48529 247.51471"
   version="1.1"
   id="SVGRoot"
   xmlns="http://www.w3.org/2000/svg"
   xmlns:svg="http://www.w3.org/2000/svg">
  <defs
     id="defs999" />
  <g
     id="layer1"
     style="display:inline"
     transform="translate(-76.757362,-76.242638)">
    <path
       style="fill:#000000;stroke-width:0.935414"
       d="m 100,103 v 169 a 3,3 135 0 1 -3,3 H 78 a 1.2426407,1.2426407 112.5 0 0 -0.87868,2.12132 l 45.75736,45.75736 a 3,3 0 0 0 4.24264,0 l 45.75736,-45.75736 A 1.2426407,1.2426407 67.5 0 0 172,275 h -19 a 3,3 45 0 1 -3,-3 v -89 a 1.0861498,1.0861498 160.09721 0 1 1.92055,-0.69534 l 96.1589,115.39068 A 6.4051248,6.4051248 25.097214 0 0 253,300 h 44 a 3,3 135 0 0 3,-3 l 0,-169 a 3,3 135 0 1 3,-3 h 19 a 1.2426407,1.2426407 112.5 0 0 0.87868,-2.12132 L 277.12132,77.12132 a 3,3 0 0 0 -4.24264,0 l -45.75736,45.75736 A 1.2426407,1.2426407 67.5 0 0 228,125 h 19 a 3,3 45 0 1 3,3 v 89 a 1.0861498,1.0861498 160.09721 0 1 -1.92055,0.69534 L 151.92055,102.30466 A 6.4051248,6.4051248 25.097214 0 0 147,100 h -44 a 3,3 135 0 0 -3,3 z"
       id="path164-35"
       class="UnoptimicedTransforms" />
  </g>
</svg>
